<svg width="20" height="20" viewBox="0 0 20 20" fill="none" xmlns="http://www.w3.org/2000/svg">
<mask id="mask0_70_1830" style="mask-type:alpha" maskUnits="userSpaceOnUse" x="0" y="0" width="20" height="20">
<rect width="20" height="20" fill="#D9D9D9"/>
</mask>
<g mask="url(#mask0_70_1830)">
<path d="M10 18.3333C8.95833 18.3333 7.98264 18.1354 7.07292 17.7396C6.16319 17.3437 5.37153 16.809 4.69792 16.1354C4.02431 15.4618 3.48958 14.6701 3.09375 13.7604C2.69792 12.8507 2.5 11.875 2.5 10.8333C2.5 9.79167 2.69792 8.81597 3.09375 7.90625C3.48958 6.99653 4.02431 6.20486 4.69792 5.53125C5.37153 4.85764 6.16319 4.32292 7.07292 3.92708C7.98264 3.53125 8.95833 3.33333 10 3.33333C11.0417 3.33333 12.0174 3.53125 12.9271 3.92708C13.8368 4.32292 14.6285 4.85764 15.3021 5.53125C15.9757 6.20486 16.5104 6.99653 16.9063 7.90625C17.3021 8.81597 17.5 9.79167 17.5 10.8333C17.5 11.875 17.3021 12.8507 16.9063 13.7604C16.5104 14.6701 15.9757 15.4618 15.3021 16.1354C14.6285 16.809 13.8368 17.3437 12.9271 17.7396C12.0174 18.1354 11.0417 18.3333 10 18.3333ZM12.3333 14.3333L13.5 13.1667L10.8333 10.5V6.66667H9.16667V11.1667L12.3333 14.3333ZM4.66667 1.95833L5.83333 3.125L2.29167 6.66667L1.125 5.5L4.66667 1.95833ZM15.3333 1.95833L18.875 5.5L17.7083 6.66667L14.1667 3.125L15.3333 1.95833ZM10 16.6667C11.625 16.6667 13.0035 16.1007 14.1354 14.9687C15.2674 13.8368 15.8333 12.4583 15.8333 10.8333C15.8333 9.20833 15.2674 7.82986 14.1354 6.69792C13.0035 5.56597 11.625 5 10 5C8.375 5 6.99653 5.56597 5.86458 6.69792C4.73264 7.82986 4.16667 9.20833 4.16667 10.8333C4.16667 12.4583 4.73264 13.8368 5.86458 14.9687C6.99653 16.1007 8.375 16.6667 10 16.6667Z" fill="#101010"/>
</g>
</svg>
