<svg width="18" height="17" viewBox="0 0 18 17" fill="none" xmlns="http://www.w3.org/2000/svg">
<path d="M8.875 16.375C7.83333 16.375 6.85764 16.1771 5.94792 15.7813C5.03819 15.3854 4.24653 14.8507 3.57292 14.1771C2.89931 13.5035 2.36458 12.7118 1.96875 11.8021C1.57292 10.8924 1.375 9.91667 1.375 8.875C1.375 7.83333 1.57292 6.85764 1.96875 5.94792C2.36458 5.03819 2.89931 4.24653 3.57292 3.57292C4.24653 2.89931 5.03819 2.36458 5.94792 1.96875C6.85764 1.57292 7.83333 1.375 8.875 1.375C9.91667 1.375 10.8924 1.57292 11.8021 1.96875C12.7118 2.36458 13.5035 2.89931 14.1771 3.57292C14.8507 4.24653 15.3854 5.03819 15.7813 5.94792C16.1771 6.85764 16.375 7.83333 16.375 8.875C16.375 9.91667 16.1771 10.8924 15.7813 11.8021C15.3854 12.7118 14.8507 13.5035 14.1771 14.1771C13.5035 14.8507 12.7118 15.3854 11.8021 15.7813C10.8924 16.1771 9.91667 16.375 8.875 16.375ZM11.2083 12.375L12.375 11.2083L9.70833 8.54167V4.70833H8.04167V9.20833L11.2083 12.375ZM3.54167 0L4.70833 1.16667L1.16667 4.70833L0 3.54167L3.54167 0ZM14.2083 0L17.75 3.54167L16.5833 4.70833L13.0417 1.16667L14.2083 0ZM8.875 14.7083C10.5 14.7083 11.8785 14.1424 13.0104 13.0104C14.1424 11.8785 14.7083 10.5 14.7083 8.875C14.7083 7.25 14.1424 5.87153 13.0104 4.73958C11.8785 3.60764 10.5 3.04167 8.875 3.04167C7.25 3.04167 5.87153 3.60764 4.73958 4.73958C3.60764 5.87153 3.04167 7.25 3.04167 8.875C3.04167 10.5 3.60764 11.8785 4.73958 13.0104C5.87153 14.1424 7.25 14.7083 8.875 14.7083Z" fill="#101010"/>
</svg>
