<svg width="80" height="72" viewBox="0 0 80 72" fill="none" xmlns="http://www.w3.org/2000/svg">
<path d="M11.2817 19.4209L6.58045 19.3843C5.5532 19.3763 4.61644 20.0904 4.37001 21.0877L2.61777 27.8675C2.27185 29.2669 3.42782 30.743 4.86946 30.743H8.19891C8.36548 30.743 8.62039 30.8686 8.53862 31.1869L0.182666 63.7137C-0.751933 67.3794 2.01769 71.0546 5.80051 71.0546H10.9063C11.4291 71.0546 11.935 70.87 12.3351 70.5336C13.6115 69.3683 33.4846 53.6488 35.5492 53.6488C36.1251 53.5998 36.695 53.632 37.2473 53.8089C38.4445 54.1929 39.1145 55.0862 39.501 56.2212C39.9653 57.5895 40.4511 58.9478 41.0428 60.268C41.9304 62.2491 42.999 64.1223 44.3814 65.799C45.7638 67.4755 47.3911 68.8536 49.3713 69.7826C51.6027 70.8288 53.9578 71.1714 56.3993 70.9778C58.6423 70.7999 60.7918 70.2202 62.8811 69.4042C65.49 68.3843 67.9303 67.0439 70.2756 65.5215C72.3602 64.1607 74.3639 62.6788 76.2751 61.0835C76.8421 60.6126 77.4003 60.1337 77.9521 59.6465C78.6242 59.0628 79.2419 58.1008 79.4381 57.3189L79.757 56.0425C80.1583 54.4403 79.2128 54.3829 78.8204 54.6773C77.0294 56.0104 75.2207 57.3189 73.2829 58.4355C71.535 59.4426 69.7149 60.2577 67.6822 60.481C65.957 60.6687 64.4189 60.2606 63.1397 59.0367C62.0918 58.0344 61.4325 56.7868 60.8941 55.4675C60.1949 53.7535 59.7392 51.9657 59.3123 50.1693C59.0083 48.89 58.7256 47.6029 58.3568 46.3416C57.8874 44.738 57.1654 43.2452 56.1347 41.9182C54.916 40.3519 53.364 39.2774 51.4245 38.8179C49.5224 38.3692 47.6427 38.549 45.796 39.1421C42.9578 40.0537 37.8616 44.2679 35.3886 46.3226C33.1149 48.2118 23.8442 56.2163 19.1444 56.2163C17.6941 56.2163 16.6333 54.8483 16.9943 53.4438C19.6643 43.0518 22.2608 32.6866 22.696 30.9845C22.7336 30.8374 22.8635 30.7434 23.0153 30.743L30.2819 30.7228C31.2923 30.7199 32.1763 29.9999 32.4281 29.0214L34.1342 22.1959C34.4958 20.7913 33.4351 19.4229 31.9846 19.4229H26.1765C25.9591 19.4229 25.8 19.2178 25.854 19.0071L30.2848 1.73156C30.5866 0.554813 29.6743 -0.000108329 29.0687 1.5862e-08H20.7402C18.2431 0.000247589 16.1343 1.60916 15.4991 4.16179L11.6066 19.1715C11.5682 19.3192 11.4343 19.422 11.2817 19.4209Z" fill="#7D1AD7"/>
</svg>
